PathFileType  4	(X/Y/Z) C:\Users\antoi\Documents\MyRepositories\mobilecap\ResultsAnalysis
DataRate	CameraRate	NumFrames	NumMarkers	Units	OrigDataRate	OrigDataStartFrame	OrigNumFrames
100.0	100.0	4	51	mm	100.0	121	160
Frame#	Time	r_knee			r_shank_antsup			r_ankle			r_calc			r_5meta			r_toe			L_knee			L_shank_antsup			L_ankle			L_calc			L_5meta			L_toe			r_sh2			r_sh3			r_sh4			L_sh2			L_sh3			r_thigh1			r_thigh2			r_thigh3			r_thigh4			r_thigh5			L_thigh1			L_thigh2			L_thigh3			L_thigh4			r.ASIS			r.PSIS			L.ASIS			L.PSIS			C7			R_Shoulder			L_Shoulder			R_Sternum			L_Sternum			R_humerus			R_elbow_med			R_elbow_lat			R_forearm			R_wrist_radius			R_wrist_ulna			L_humerus			L_elbow_med			L_elbow_lat			L_forearm			L_wrist_radius			L_wrist_ulna			R_HJC			L_HJC			R_HJC_reg			L_HJC_reg			
		X1	Y1	Z1	X2	Y2	Z2	X3	Y3	Z3	X4	Y4	Z4	X5	Y5	Z5	X6	Y6	Z6	X7	Y7	Z7	X8	Y8	Z8	X9	Y9	Z9	X10	Y10	Z10	X11	Y11	Z11	X12	Y12	Z12	X13	Y13	Z13	X14	Y14	Z14	X15	Y15	Z15	X16	Y16	Z16	X17	Y17	Z17	X18	Y18	Z18	X19	Y19	Z19	X20	Y20	Z20	X21	Y21	Z21	X22	Y22	Z22	X23	Y23	Z23	X24	Y24	Z24	X25	Y25	Z25	X26	Y26	Z26	X27	Y27	Z27	X28	Y28	Z28	X29	Y29	Z29	X30	Y30	Z30	X31	Y31	Z31	X32	Y32	Z32	X33	Y33	Z33	X34	Y34	Z34	X35	Y35	Z35	X36	Y36	Z36	X37	Y37	Z37	X38	Y38	Z38	X39	Y39	Z39	X40	Y40	Z40	X41	Y41	Z41	X42	Y42	Z42	X43	Y43	Z43	X44	Y44	Z44	X45	Y45	Z45	X46	Y46	Z46	X47	Y47	Z47	X48	Y48	Z48	X49	Y49	Z49	X50	Y50	Z50	X51	Y51	Z51	

121	1.20000000	1180.30276	563.84184	-149.04647	1238.12517	456.74689	-152.73981	1242.28169	109.04139	-177.75913	1202.03864	67.81876	-242.57588	1381.52820	64.46283	-110.89599	1420.57539	113.41329	-164.98965	940.26145	536.03058	-485.66468	956.95759	423.75789	-467.90342	790.48477	105.38974	-460.40703	726.45440	76.55541	-408.34785	924.54510	34.09067	-495.52706	961.43461	54.93671	-427.99297	1272.60956	349.16804	-171.29661	1173.64767	428.74159	-119.02238	1212.21207	318.46125	-122.05403	876.83484	438.68010	-510.43578	871.86170	317.81811	-521.00904	1188.68360	810.47494	-167.16195	1227.57241	706.05233	-178.78705	1208.25175	668.24437	-125.43379	1111.78578	772.48763	-93.68803	1152.71725	664.07552	-113.74308	1075.86320	764.98513	-498.51342	1054.62730	630.60034	-485.03651	969.75811	776.46150	-533.57362	948.06955	640.51117	-511.51486	1091.49597	1040.04483	-173.44314	904.18972	1086.34855	-280.95614	1128.58508	1015.84844	-434.40904	914.78853	1083.84621	-377.62917	1044.85489	1535.24244	-497.45846	1078.94663	1554.25784	-289.51836	1124.93401	1400.94985	-614.94702	1162.25742	1462.04667	-416.78418	1164.72254	1437.00141	-457.01814	1027.98054	1433.46370	-156.70165	893.50555	1236.38296	-147.80882	913.47580	1276.72195	-76.28262	983.30992	1123.85480	-20.61687	996.49788	1008.43678	21.53604	966.04074	1012.76973	49.65870	1166.14195	1231.72562	-655.16457	1145.44330	1013.75832	-594.58028	1183.24439	1032.14455	-664.02235	1325.06142	956.28312	-609.51358	1407.75015	868.80982	-606.55867	1385.16333	844.90874	-642.41588	1007.39084	965.78634	-211.41054	1033.97569	938.45084	-421.36452	1019.91970	957.04881	-216.72522	1038.94804	952.55786	-390.32287	
122	1.21000000	1187.63471	559.51674	-150.88431	1250.37594	456.05258	-154.67251	1271.09234	108.22757	-176.90272	1231.39476	64.38830	-240.08871	1414.60500	70.86696	-113.49228	1449.30407	121.30688	-168.87882	942.09151	535.87079	-486.20464	958.09113	423.52078	-468.31919	790.56952	105.78946	-459.98046	726.40530	76.91985	-408.13294	924.58211	34.16180	-495.54607	961.36196	54.90547	-427.96105	1289.56403	349.96626	-172.81135	1187.67172	425.42717	-119.62851	1231.53579	317.09062	-122.39143	877.96318	438.67753	-510.84439	872.52495	317.78346	-521.09887	1197.82077	805.31317	-168.05658	1235.65308	700.39206	-179.79397	1215.42120	662.64570	-126.68007	1120.03169	767.94007	-95.00637	1159.77416	659.11923	-115.18036	1080.88569	763.02255	-499.31165	1057.82261	629.05951	-485.76360	974.70421	776.09606	-533.97040	951.24142	640.49408	-511.60579	1102.46077	1036.66774	-174.47067	914.29104	1083.59989	-280.64346	1137.74612	1013.60929	-435.93638	924.22855	1081.53619	-377.33389	1055.41980	1534.91986	-492.38634	1090.74814	1550.61677	-284.33317	1134.52754	1401.79846	-612.23625	1172.88265	1459.91571	-413.34412	1174.75453	1435.48564	-454.16101	1039.83664	1428.39973	-152.77212	904.54821	1231.88603	-145.35395	924.65091	1271.57109	-73.55449	993.49124	1117.94607	-18.86648	1006.01636	1002.18198	22.46442	975.47784	1006.51887	50.57848	1174.95937	1232.54657	-653.31873	1153.50270	1014.31452	-594.07126	1191.36944	1032.83170	-663.34072	1333.46419	957.47288	-608.76729	1416.85353	870.58680	-605.97212	1394.21115	846.46487	-641.80632	1017.96762	962.64844	-212.29171	1043.10364	936.23735	-422.54308	1030.47976	953.85679	-217.67907	1048.34438	950.14779	-391.51698	
123	1.22000000	1195.30200	555.35680	-152.56075	1262.37733	455.37612	-156.44332	1298.47804	107.97535	-176.20776	1259.41517	61.55320	-237.66235	1445.97141	77.54858	-116.50037	1476.21805	129.31025	-173.08202	944.22942	535.82360	-486.82055	959.41362	423.37313	-468.87990	790.70037	106.30222	-459.69853	726.42024	77.51066	-408.00134	924.61952	34.18709	-495.59939	961.34717	54.85772	-427.98908	1305.81021	350.80511	-174.18653	1201.33850	422.47322	-120.28390	1249.93862	316.03162	-122.74112	879.29831	438.83928	-511.27512	873.28001	317.94777	-521.28858	1207.07508	800.11757	-168.93938	1243.86250	694.70999	-180.75433	1222.84633	657.09139	-127.77697	1128.58948	763.44835	-96.11100	1167.10455	654.18420	-116.38335	1085.99989	761.20871	-500.38316	1061.19582	627.65483	-486.92174	979.66462	775.90190	-534.35942	954.53651	640.61472	-511.78594	1113.56424	1033.35690	-175.48374	924.51832	1080.73368	-280.30150	1147.07664	1011.38630	-437.31307	933.85403	1079.10116	-376.99262	1066.01331	1534.60616	-487.07638	1102.65740	1546.79875	-278.96256	1144.16430	1402.74175	-609.38484	1183.58198	1457.73908	-409.76765	1184.98403	1433.96841	-451.10085	1051.89724	1423.04401	-148.73691	915.86354	1227.08428	-142.78291	936.08679	1266.11248	-70.70752	1003.96536	1111.75219	-17.02180	1015.79810	995.64149	23.47277	985.19075	999.97799	51.55825	1183.71562	1233.41334	-651.41248	1161.32798	1014.94086	-593.47435	1199.26541	1033.56288	-662.58126	1341.50781	958.48792	-607.94708	1425.31594	871.99635	-605.28309	1402.73676	847.76257	-641.14758	1028.74166	959.50358	-213.09094	1052.48276	933.97117	-423.61351	1041.22575	950.66853	-218.63021	1058.02450	947.73106	-392.61551	
124	1.23000000	1203.68159	551.52252	-154.07550	1274.37053	454.65189	-158.05234	1323.92911	108.01713	-175.77911	1285.55319	59.14399	-235.49881	1474.95288	83.93602	-119.76454	1500.92064	136.83384	-177.38277	946.80265	535.82808	-487.43376	961.05794	423.26022	-469.48791	790.90593	106.94367	-459.53790	726.51251	78.32777	-407.93528	924.65886	34.18313	-495.66621	961.38749	54.78960	-428.05371	1321.40575	351.49551	-175.46425	1214.80026	419.87272	-120.98760	1267.40072	315.14152	-123.14275	881.00493	439.12162	-511.70563	874.28214	318.25854	-521.53107	1216.51214	795.11511	-169.89154	1252.32622	689.27240	-181.80654	1230.87577	651.85862	-128.80271	1137.70023	759.16138	-96.97632	1175.07152	649.47667	-117.35479	1091.34109	759.50760	-501.68110	1064.88704	626.35220	-488.42806	984.80755	775.81644	-534.72592	958.11028	640.81390	-512.03577	1124.74882	1030.11738	-176.46162	934.85305	1077.79460	-279.92469	1156.57319	1009.18692	-438.54179	943.66789	1076.58051	-376.61073	1076.62505	1534.30459	-481.53238	1114.64591	1542.83445	-273.42444	1153.85390	1403.78369	-606.36480	1194.35492	1455.54492	-406.04999	1195.43369	1432.45349	-447.81896	1064.15368	1417.43032	-144.61281	927.45825	1221.99545	-140.11191	947.80425	1260.36438	-67.75416	1014.73778	1105.28015	-15.10613	1025.83229	988.81696	24.54464	995.18676	993.16346	52.58667	1192.41237	1234.33694	-649.44552	1168.93374	1015.62897	-592.76398	1206.94850	1034.35932	-661.74042	1349.19919	959.32970	-607.05256	1433.09934	873.01542	-604.49143	1410.72022	848.80365	-640.45101	1039.66392	956.36984	-213.80881	1062.08749	931.67759	-424.57656	1052.09025	947.50613	-219.57769	1067.96043	945.31934	-393.63365	
